{"title":"RoboGeisha.2009.SWESUB.x264.AAC.mp4-Zen_Bud","uid":5659874,"size":1414850870,"categoryP":"video","categoryS":"movies","magnet":"?xt=urn:btih:06c525a0be9a48588e342e440497a5ecf30afc49&amp;dn=RoboGeisha.2009.SWESUB.x264.AAC.mp4-Zen_Bud&amp;tr=udp%3A%2F%2Ftracker.openbittorrent.com%3A80&amp;tr=udp%3A%2F%2Fopen.demonii.com%3A1337&amp;tr=udp%3A%2F%2Ftracker.coppersurfer.tk%3A6969&amp;tr=udp%3A%2F%2Fexodus.desync.com%3A6969","seeders":0,"leechers":1,"uploader":"Zen_Bud","files":-1,"time":1277935135,"description":"General\nComplete name                    : RoboGeisha.m4v\nFormat                           : MPEG-4\nCodec ID                         : mp42\nFile size                        : 1.32 GiB\nDuration                         : 1h 41mn\nOverall bit rate                 : 1 861 Kbps\nWriting application              : HandBrake svn3420 2010062901\n\nVideo\n\nFormat                           : AVC\nDuration                         : 1h 41mn\nBit rate                         : 1 697 Kbps\nWidth                            : 720 pixels\nHeight                           : 480 pixels\nDisplay aspect ratio             : 16:9\nStream size                      : 1.20 GiB (91%)\nWriting library                  : x264 core 100\n\nAudio\n\nFormat                           : AAC\nDuration                         : 1h 41mn\nBit rate                         : 160 Kbps\nChannel(s)                       : 2 channels\nChannel positions                : Front: L R\nSampling rate                    : 48.0 KHz\nStream size                      : 116 MiB (9%)\n\n\n\n\n","torrent":{"xt":"urn:btih:06c525a0be9a48588e342e440497a5ecf30afc49","amp;dn":"RoboGeisha.2009.SWESUB.x264.AAC.mp4-Zen_Bud","amp;tr":["udp%3A%2F%2Ftracker.openbittorrent.com%3A80","udp%3A%2F%2Fopen.demonii.com%3A1337","udp%3A%2F%2Ftracker.coppersurfer.tk%3A6969","udp%3A%2F%2Fexodus.desync.com%3A6969"],"infoHash":"06c525a0be9a48588e342e440497a5ecf30afc49","infoHashBuffer":{"type":"Buffer","data":[6,197,37,160,190,154,72,88,142,52,46,68,4,151,165,236,243,10,252,73]},"announce":[],"urlList":[]}}